<svg width="20" height="20" viewBox="0 0 20 20" fill="none" xmlns="http://www.w3.org/2000/svg">
<path d="M19.5823 17.5618C19.8499 17.8298 20.0001 18.1931 20 18.5718C19.9999 18.9506 19.8494 19.3137 19.5815 19.5815C19.3137 19.8494 18.9506 19.9999 18.5718 20C18.1931 20.0001 17.8298 19.8499 17.5618 19.5823L10 12.0205L2.43821 19.5823C2.17021 19.8499 1.80692 20.0001 1.42818 20C1.04945 19.9999 0.686259 19.8494 0.418452 19.5815C0.150644 19.3137 0.000132837 18.9506 8.78864e-08 18.5718C-0.000132661 18.1931 0.150124 17.8298 0.417744 17.5618L7.97954 10L0.417744 2.43821C0.150124 2.17021 -0.000132661 1.80692 8.78864e-08 1.42818C0.000132837 1.04945 0.150644 0.686259 0.418452 0.418452C0.686259 0.150644 1.04945 0.000132837 1.42818 8.78864e-08C1.80692 -0.000132661 2.17021 0.150124 2.43821 0.417744L10 7.97954L17.5618 0.417744C17.8298 0.150124 18.1931 -0.000132661 18.5718 8.78864e-08C18.9506 0.000132837 19.3137 0.150644 19.5815 0.418452C19.8494 0.686259 19.9999 1.04945 20 1.42818C20.0001 1.80692 19.8499 2.17021 19.5823 2.43821L12.0205 10L19.5823 17.5618Z" fill="#1AB8DB"/>
</svg>
